<svg width="160" height="160" viewBox="0 0 160 160" fill="none" xmlns="http://www.w3.org/2000/svg">
<g clip-path="url(#clip0_34_40)">
<path d="M27.44 53.64H57.08V47.52H49.64V40.08H34.88V31.44H94.16V24H125V32.64H110.24V47.52H102.8V53.64H132.44V77.16H125V84.6H116.36V77.16H108.92V68.52H117.68V75.84H123.68V62.4H80.6V68.52H88.04V77.16H79.28V69.72H71.84V62.4H36.08V77.16H27.44V53.64ZM94.16 53.64V46.2H101.48V32.64H95.36V40.08H80.6V46.2H88.04V53.64H94.16ZM79.28 53.64V47.52H71.84V40.08H58.4V46.2H65.72V53.64H79.28ZM49.64 127.8V120.36H64.52V114.24H57.08V106.8H50.96V114.24H34.88V105.6H49.64V98.16H57.08V90.72H64.52V84.6H57.08V68.52H65.72V83.28H94.16V68.52H102.8V84.6H95.36V92.04H65.72V98.16H117.68V106.8H110.24V114.24H95.36V120.36H102.8V127.8H132.44V136.68H101.48V129.24H86.72V121.68H73.16V129.24H50.96V136.68H27.44V127.8H49.64ZM34.88 83.28H42.2V68.52H50.96V84.6H43.52V92.04H34.88V83.28ZM94.16 113.04V106.8H65.72V113.04H94.16Z" fill="#313131"/>
</g>
<defs>
<clipPath id="clip0_34_40">
<rect width="160" height="160" fill="white"/>
</clipPath>
</defs>
</svg>
